<?xml version="1.0" encoding="utf-8"?>
<!-- Generator: Adobe Illustrator 26.2.1, SVG Export Plug-In . SVG Version: 6.00 Build 0)  -->
<svg version="1.1" id="Layer_1_copy" xmlns="http://www.w3.org/2000/svg" xmlns:xlink="http://www.w3.org/1999/xlink" x="0px"
	 y="0px" viewBox="0 0 1080 1080" style="enable-background:new 0 0 1080 1080;" xml:space="preserve">
<style type="text/css">
	.st0{display:none;fill:#1E1E1E;}
	.st1{fill:#FE9351;}
	.st2{fill:#FEE9D8;}
	.st3{opacity:0.44;fill:#5B5B5A;}
	.st4{display:none;}
	.st5{display:inline;fill:#FEE9D8;}
	.st6{font-family:'GladiolaRegular';}
	.st7{font-size:36.5502px;}
	.st8{display:inline;}
	.st9{font-size:83.1806px;}
	.st10{font-size:172.1671px;}
</style>
<rect class="st0" width="1080" height="1080"/>
<g>
	<path class="st1" d="M433.23,326.96c18.26-5.54,63.92-21.33,82.62-25.71c42.96-10.08,85.89-9.92,127.93,4.98
		c73.82,26.17,114.62,94.39,104.2,173.61c-0.91,6.94-2.16,13.83-4.41,20.7c0-2.27-0.07-4.53,0.01-6.8
		c1.88-51-13.87-94.74-53.93-127.85c-27.95-23.1-60.99-33.86-96.76-37.04c-33.89-3.02-56.83-7.85-89.13,2.14
		c-2.08,0.64-18.03,9.17-19.63,7.88C475.71,332.11,442.91,335.3,433.23,326.96z"/>
	<path class="st1" d="M336.17,623.47c-28.12-47.64-25.39-96.79-6.66-146.88c5.4,0.42,10.37,0.5,15.23,1.27
		c4.45,0.71,3.47,3.55,2.2,6.75c-4.94,12.43-10.6,24.68-14.22,37.5C322.61,557.95,323.95,582.39,336.17,623.47z"/>
	<path class="st2" d="M313.42,586.98c0,0-5.63,149.65,183.41,140.65c0,0,115.89-2.25,204.78-104.64c0,0-87.01,135.02-230.29,135.77
		C471.32,758.76,303.3,770.01,313.42,586.98z"/>
</g>
<g>
	<g>
		<path class="st1" d="M770.64,568.8c-2.18-16.78-6.88-32.86-14.71-47.9c-2.41-4.64-6.5-6.37-11.66-4.68
			c-5.88,1.92-11.64,4.31-17.63,5.82c-20.3,5.14-36.44,15.65-46.86,34.34c-1.76,3.16-4.8,6.26-8.01,7.83
			c-8.74,4.28-17.79,8-26.91,11.4c-0.75,0.28-1.43,0.53-2.04,0.76c-0.01,0-0.02,0-0.03,0.01c-6.24,2.34-6.23,2.86-5.13,11.29
			c0.1-0.02,0.2-0.04,0.3-0.06c12.13-2.44,23.89-5.02,35.74-7.06c3.6-0.62,7.61-0.34,11.16,0.59c6.17,1.62,12.05,4.32,18.19,6.08
			c4.95,1.41,10.41,3.71,15.11,2.82c15.29-2.9,30.35-7,45.46-10.81C768.87,577.91,771.31,573.91,770.64,568.8z M697.56,545.69
			c1.43-0.9,2.77-2.01,4.3-2.67l35.89-15.08c1.89-0.76,4.51,0.32,6.8,0.54c-1.47,1.72-2.61,4.29-4.47,5.02
			c-12.09,4.71-24.32,9.07-36.54,13.43c-1.66,0.59-3.54,0.56-5.32,0.82C698,547.07,697.78,546.38,697.56,545.69z M702.31,558.32
			c-0.23-0.56-0.47-1.13-0.7-1.69c1.36-0.89,2.61-2.07,4.09-2.62c12.57-4.64,25.14-9.3,37.83-13.6c1.69-0.58,4.03,0.8,6.07,1.27
			l-43.33,16.6C705.05,558.64,703.63,558.32,702.31,558.32z M705.15,567.45c1.7-0.76,3.35-1.68,5.12-2.23
			c12.22-3.83,24.43-7.72,36.75-11.22c1.97-0.56,4.46,0.73,6.71,1.16c-1.61,1.6-2.97,4.11-4.87,4.64l-37.25,9.45
			c-1.92,0.46-3.99,0.28-6,0.4C705.46,568.91,705.3,568.18,705.15,567.45z M713.08,580.91c-1.66,0.31-3.46-0.2-5.2-0.32
			c-0.09-0.59-0.18-1.18-0.26-1.76c1.69-0.75,3.32-1.75,5.09-2.21c12.4-3.2,24.81-6.42,37.29-9.28c2.07-0.47,6.2,0.31,6.55,1.41
			L713.08,580.91z"/>
		<path class="st1" d="M642.82,576.37c-0.01,0-0.02,0-0.03,0.01c-2.56,0.71-38.54,11.76-40.43,12.34
			c-37.89,11.61-75.78,23.21-113.66,34.86c-3.65,1.13-6.96,2.46-10.35-1.16c-1.12-1.2-4.26-1.31-6.22-0.85
			c-22.39,5.33-44.93,10.18-66.97,16.7c-8.05,2.39-15.75,7.94-22.03,13.75c-6.84,6.32-4.26,14.62,4.84,16.82
			c6.25,1.5,13.62,2.51,19.49,0.62c24.53-7.89,48.71-16.91,72.94-25.7c1.61-0.59,3.54-2.66,3.75-4.26c0.56-4.15,3.37-4.74,6.52-5.7
			c37.14-11.33,74.26-22.74,111.37-34.13c16.88-5.58,28.46-9.32,35.92-12.06C652.84,582.15,651.35,580.65,642.82,576.37z
			 M402.86,657.18c-0.42,2.23-3.75,5.03-6.12,5.36c-1.54,0.21-5.04-3.54-5.08-5.56c-0.05-2.28,2.81-4.62,4.41-6.93
			c0.91,0.03,1.82,0.06,2.73,0.08C400.28,652.51,403.25,655.16,402.86,657.18z"/>
	</g>
</g>
<g>
	<path class="st2" d="M382.7,405.08c-3.85,7.64-1.92,13.54,1.41,19.23c4.59,7.85,4.1,9.38-3.78,14.23
		c-6.65,4.09-12.99,8.68-19.64,12.77c-12.52,7.69-27.01,5.34-35.63-5.57c-9.21-11.67-6.72-28.02,6.5-38.11
		c5-3.81,11.11-6.19,16.81-9.04c2.04-1.02,4.35-1.51,6.54-2.24c-0.12-0.52-0.24-1.04-0.36-1.57c-5.71,0.97-11.41,1.94-17.65,3
		c-3.14-7.18-1.99-14.2,1.33-21.05c5.2-10.76,14.17-17.79,24.31-23.35c14.55-7.98,30.07-12.13,46.8-9.99
		c3.52,0.45,7.15,1.35,10.35,2.86c13.24,6.24,15.63,18.47,5.92,29.4c-1.58,1.78-3.52,3.22-5.8,5.28
		c14.23-0.85,21.41-14.29,17.99-32.04c19.5-9.37,50.46,5.06,55.49,26.15c-4.23,0.65-8.46,1.3-13.81,2.12
		c7.16,2.15,13.35,3.47,19.11,5.85c11.15,4.61,16.57,12.86,14.82,21.34c-1.82,8.83-12.78,16.93-23.29,16.69
		c-9.56-0.22-19.15-0.57-28.62-1.74c-3.27-0.4-7.85-2.75-8.94-5.4c-1.72-4.18,2.32-7.05,6.02-9.02c0.84-0.44,1.65-0.93,2.76-1.56
		c-5.79-1.63-11.59-0.1-16.98,4.64c-3.45,3.04-6.64,6.39-9.87,9.67c-7.83,7.93-17.66,9.91-28.19,9.1
		c-10.41-0.81-17.23-6.78-21.21-16.24C384.47,409.06,383.83,407.65,382.7,405.08z"/>
	<path class="st3" d="M335,399.32l20.55-4.16l-9.29-3.67c0,0-2.43-45.15,68.26-47.1c0,0-40.86-15.51-65.32,16.04
		C349.19,360.43,326.44,378.53,335,399.32z"/>
	<path class="st3" d="M436.71,344.76l0.22,19.85c0,0,3.11,3.66,7.91-13.9c0,0,33.2-1.45,45.44,16.85
		C490.28,367.55,478.3,333.21,436.71,344.76z"/>
	<path class="st3" d="M481.83,377.84c0,0,33.89,11.42,19.19,30.68c0,0-7.91,14.43-35.57,5.84c0,0-6.71-1.56-10.39-7.28
		c0,0-14.67,10.01,10.62,15.2l39.03,0.92l12.7-17.43C517.42,405.78,519.99,379.07,481.83,377.84z"/>
	<path class="st3" d="M330.35,408.59c0,0-14.88,35.42,13.37,38.17c0,0,28.43-2.94,35.04-18.34c0,0-6.15-11.42,3.94-23.34l7.99,23.89
		l-2.75,8.62l-34.49,20.55c0,0-32.65,0.73-32.47-7.89S304.12,422.53,330.35,408.59z"/>
	<path class="st2" d="M385.9,469.55c5.78-3.63,11.57-7.25,17.35-10.88c-0.18-0.41-0.36-0.81-0.54-1.22
		c-7.48,3.08-14.96,6.17-22.44,9.25c-0.14-0.25-0.28-0.5-0.42-0.76c7.67-4.73,15.34-9.46,23.01-14.19
		c-0.18-0.38-0.36-0.77-0.54-1.15c-9.32,4.13-18.63,8.26-27.95,12.39c-0.16-0.25-0.32-0.5-0.48-0.76
		c9.08-5.78,18.16-11.56,27.23-17.34c-0.23-0.47-0.46-0.93-0.69-1.4c-11.39,5.43-22.77,10.85-34.16,16.28
		c-0.18-0.19-0.35-0.39-0.53-0.58c6.8-4.55,13.29-9.67,20.46-13.53c24.96-13.45,51.61-20.47,80.14-19.3
		c2.78,0.11,5.58,0.56,8.32,1.09c11.09,2.12,11.63,2.96,9.57,15.72c-11.68,0-23.64,0-35.6,0c-0.01,0.64-0.02,1.28-0.03,1.92
		c10.13,0.9,20.25,1.8,30.38,2.7C446.23,447.97,415.53,455.97,385.9,469.55z"/>
	<path class="st3" d="M385.9,469.55c0,0,50.75-24.78,58.45-23.9c0,0,28.52-2.46,36.22,3.74L385.9,469.55z"/>
	<path class="st3" d="M472.14,426.23c0,0,4.69,8.44,3.22,10.64l-12.18,6.94l21.99,1.62l1.26-15.91L472.14,426.23z"/>
	<path class="st1" d="M524.69,398.9c-2.41-9.6-8.56-15.97-17.37-20.26c-2.19-1.07-4.56-3.32-5.3-5.53
		c-9.22-27.79-32.97-41.69-61.68-35.14c-6.88,1.56-12.94,2.89-18.89-2.1c-1.6-1.32-3.99-1.85-6.11-2.38
		c-26.71-6.71-50.46,0.63-71.79,16.45c-17.86,13.24-27.17,30.74-22.43,53.8c0.29,1.38-0.63,3.44-1.64,4.59
		c-10.85,12.4-13.18,25.13-6.47,38.7c6.76,13.67,17.94,19.84,33.21,19.05c2.25-0.12,5.35,0.87,6.78,2.48
		c7.29,8.19,13.17,16.78,10.21,29.02c-2.79,11.6,1.59,27.42,8.06,33.47c1.13-3.48,2.15-6.93,3.38-10.29
		c7.91-21.77,21.39-38.31,43.7-46.59c14.84-5.51,30.26-6.1,45.65-4.11c11.58,1.49,22.97,4.46,33.49,6.55l3.5-20.8
		c-7.01-4.06-9.16-12.42-6.13-23.47c2.63-0.41,5.4-0.75,8.13-1.29C519.47,427.78,528.56,414.36,524.69,398.9z M484.22,443.16h-35.6
		c0,0.64-0.01,1.27-0.02,1.91c10.13,0.9,20.25,1.8,30.38,2.69c-32.75,0.2-63.45,8.2-93.08,21.78c5.78-3.63,11.57-7.25,17.35-10.88
		c-0.18-0.4-0.36-0.81-0.54-1.21c-7.48,3.08-14.96,6.17-22.44,9.25c-0.14-0.25-0.28-0.51-0.42-0.76
		c7.67-4.73,15.33-9.46,23.01-14.19c-0.18-0.38-0.36-0.77-0.53-1.15c-9.32,4.14-18.64,8.26-27.96,12.4
		c-0.16-0.25-0.32-0.51-0.48-0.76c9.08-5.78,18.16-11.56,27.24-17.34c-0.24-0.47-0.47-0.94-0.7-1.41
		c-11.39,5.44-22.78,10.86-34.15,16.28c-0.18-0.19-0.36-0.38-0.54-0.58c6.81-4.55,13.29-9.67,20.47-13.54
		c24.97-13.44,51.6-20.46,80.14-19.3c2.78,0.12,5.57,0.57,8.32,1.09C485.75,429.56,486.29,430.4,484.22,443.16z M513.39,404.34
		c-1.82,8.83-12.78,16.93-23.29,16.69c-9.55-0.23-19.14-0.58-28.62-1.74c-3.27-0.4-7.85-2.75-8.94-5.4
		c-1.72-4.17,2.32-7.05,6.02-9.02c0.83-0.45,1.65-0.93,2.75-1.55c-5.78-1.64-11.59-0.11-16.98,4.64c-3.45,3.04-6.64,6.4-9.87,9.67
		c-7.83,7.94-17.67,9.92-28.19,9.1c-10.41-0.81-17.23-6.78-21.21-16.25c-0.6-1.43-1.24-2.84-2.37-5.41
		c-3.85,7.64-1.91,13.54,1.41,19.23c4.59,7.85,4.11,9.38-3.78,14.24c-6.64,4.09-12.99,8.67-19.64,12.76
		c-12.52,7.7-27.01,5.34-35.63-5.57c-9.21-11.66-6.72-28.02,6.51-38.11c4.99-3.81,11.11-6.19,16.8-9.04
		c2.04-1.02,4.35-1.5,6.54-2.24c-0.12-0.52-0.24-1.05-0.36-1.56c-5.7,0.96-11.41,1.94-17.64,2.99c-3.14-7.18-2-14.2,1.32-21.06
		c5.21-10.76,14.17-17.79,24.3-23.34c14.55-7.99,30.08-12.13,46.79-9.99c3.52,0.46,7.16,1.36,10.35,2.86
		c13.23,6.24,15.63,18.47,5.92,29.4c-1.58,1.77-3.52,3.22-5.8,5.27c14.23-0.84,21.41-14.29,17.98-32.04
		c19.51-9.37,50.47,5.06,55.5,26.16c-4.23,0.65-8.47,1.3-13.82,2.12c7.17,2.14,13.36,3.48,19.12,5.84
		C509.73,387.61,515.14,395.85,513.39,404.34z"/>
</g>
<g>
	<g>
		<path class="st2" d="M436.87,672.04c0.18-0.05,0.36,0.04,0.42,0.22c0.06,0.17-0.02,0.36-0.18,0.44c-2.4,1.11-7.11,3.2-11.61,5.16
			c2.13,6.95,8.6,29.27,9.14,32.31c0.1,0.56-0.34,1.1-1.06,1.32l-0.02,0.01c-0.71,0.2-1.34-0.03-1.56-0.57
			c-0.42-1-1.26-3.61-2.24-6.83c-0.98-3.22-2.11-7.06-3.1-10.54c-1.52-5.31-3.14-11.21-3.91-14.5c-3.97,1.71-7.32,3.11-8.07,3.32h0
			c-0.62,0.17-1.15-0.29-1.36-0.83c-0.24-0.62-0.05-1.24,0.48-1.51c0.85-0.43,4.37-1.73,8.51-3.19c0-0.04-0.01-0.08-0.01-0.11
			c-0.05-0.65,0.6-1.12,1.26-1.26c0.62-0.13,1.14,0.05,1.34,0.47C429.49,674.36,434.32,672.76,436.87,672.04z"/>
		<path class="st2" d="M449.66,689.38c0.02,0.68-0.06,3.27-0.41,5.86c-0.02,0.13-0.03,0.26-0.05,0.38
			c-0.52,3.65-1.33,5.58-2.46,5.89c-0.38,0.12-0.8,0.05-1.13-0.17c-1.36-0.91-1.8-4.41-2.22-7.8c-0.15-1.21-0.29-2.35-0.47-3.21
			c-0.22-1.11-0.42-1.34-0.48-1.39c-0.24,0.09-0.53,0.78-0.7,1.86c-0.01,0.03-0.01,0.05-0.01,0.08c-0.04,0.26-0.07,0.54-0.1,0.83
			c0,0.03,0,0.05-0.01,0.08c0,0.01,0,0.02,0,0.03c-0.11,1.38-0.14,2.76-0.09,4.13c0.07,2.45,0.34,4.89,0.65,6.03
			c0.05,0.13,0.1,0.25,0.14,0.35c0.12,0.29,0.07,0.63-0.13,0.88c-0.23,0.27-0.53,0.45-0.87,0.54c-0.25,0.07-0.52,0.09-0.79,0.05
			c-0.41-0.07-0.7-0.31-0.82-0.67c-0.45-1.36-2-6.44-3.13-11.71c-1.44-6.7-1.66-11.05-0.66-12.93c0.3-0.57,0.72-0.93,1.24-1.08
			c0.49-0.16,1.04-0.04,1.43,0.3c1.03,0.88,1.49,3.39,1.42,7.65c-0.05,3.06-0.38,6.08-0.52,7.25c0.48,1.99,0.99,3.9,1.46,5.52
			c-0.16-2.08-0.2-4.49-0.01-6.46c0-0.01,0-0.01,0-0.02c0.03-0.35,0.08-0.77,0.15-1.19c0-0.01,0-0.03,0.01-0.04
			c0.12-0.73,0.3-1.35,0.52-1.8c0.24-0.5,0.56-0.8,0.93-0.91c0.43-0.14,0.9-0.07,1.28,0.19c1.32,0.9,1.64,4.09,1.96,7.18
			c0.22,2.14,0.46,4.56,1.03,4.95c0.05,0.03,0.11,0.04,0.17,0.02c0.09-0.03,0.55-0.25,1.06-2.18c0.22-0.86,0.39-1.74,0.52-2.62
			c0.01-0.04,0.01-0.08,0.02-0.12c0.34-2.54,0.42-5.06,0.4-5.73c0-0.09,0.03-0.18,0.09-0.25c0.06-0.07,0.15-0.11,0.24-0.11
			C449.49,689.04,449.66,689.19,449.66,689.38z M439,690.54c0.13-1.42,0.27-3.29,0.3-5.17c0.03-1.25-0.01-2.5-0.12-3.74
			c-0.23-2-0.64-2.94-0.95-3.15c-0.05-0.04-0.11-0.05-0.17-0.03c-0.1,0.03-0.2,0.13-0.28,0.3c-0.62,1.29-0.17,5.58,1.21,11.76
			C438.99,690.51,438.99,690.53,439,690.54z"/>
		<path class="st2" d="M457.63,686.89c0.06,0.07,0.1,0.16,0.1,0.25c-0.08,2.06-0.27,4.11-0.58,6.14c-0.13,0.84-0.28,1.6-0.45,2.27
			c-0.56,2.29-1.31,3.54-2.25,3.8c-0.87,0.25-1.92-0.17-2.88-1.14c-0.98-0.99-1.79-2.49-2.27-4.23c-0.56-1.99-0.67-4-0.32-5.64
			c0.36-1.65,1.17-2.77,2.23-3.06c0.55-0.17,1.15-0.06,1.6,0.29c0.63,0.48,1.05,1.41,1.1,2.41c0,0.03,0,0.06,0,0.09
			c0,0.02,0,0.05,0,0.07c0,0.02,0,0.03,0,0.05c0,0,0,0,0,0c0,2.27-1.73,4.09-2.48,4.77c0.06,0.25,0.12,0.5,0.19,0.74
			c0.82,2.91,2.04,4.84,2.92,4.59c0.32-0.09,0.8-0.59,1.33-2.44c0-0.02,0.01-0.03,0.01-0.05c0.72-2.64,1.06-6.46,1.13-8.7
			c0-0.09,0.04-0.18,0.11-0.25c0.07-0.06,0.16-0.1,0.25-0.09S457.56,686.82,457.63,686.89z M451.26,692.18
			c0.76-0.75,1.96-2.23,1.96-3.97c0,0,0-0.01,0-0.01c0-0.01,0-0.01,0-0.02c0-0.03,0-0.05,0-0.08c0-0.02,0-0.04,0-0.06
			c-0.04-0.6-0.35-1.38-0.8-1.73c-0.18-0.14-0.35-0.18-0.53-0.13c-0.58,0.16-0.93,1.09-0.97,2.54
			C450.89,689.72,451.01,690.93,451.26,692.18z"/>
		<path class="st2" d="M487.63,676.9c0.03,0.09,0.01,0.19-0.03,0.27c-0.04,0.08-0.12,0.14-0.21,0.17c-0.26,0.08-1.2,0.35-2.56,0.74
			c2.17,7.57,4.26,15.06,4.56,16.73c0.1,0.56-0.34,1.1-1.06,1.32l-0.02,0.01c-0.71,0.2-1.34-0.03-1.56-0.57
			c-0.42-1-1.26-3.61-2.24-6.83c-0.91-2.97-1.94-6.47-2.87-9.73c-1.99,0.57-4.25,1.23-6.41,1.84c1.87,6.75,3.61,13.25,3.92,14.89
			c0.12,0.63-0.38,1.12-0.94,1.29l-0.02,0c-0.64,0.18-1.23-0.07-1.44-0.61c-0.65-1.64-2.3-7.24-3.91-12.95
			c-0.17-0.6-0.33-1.19-0.5-1.79c-1.85,0.53-3.44,0.98-4.46,1.27c-0.48,0.13-0.82,0.23-1.01,0.28c-0.19,0.05-0.38-0.06-0.43-0.25
			c-0.05-0.19,0.06-0.38,0.25-0.43c0.57-0.15,2.73-0.76,5.46-1.54c-0.09-0.32-0.18-0.64-0.26-0.96c-1.73-6.27-3.8-14.16-3.97-15.78
			c-0.07-0.64,0.5-1.1,1.09-1.23c0.62-0.13,1.14,0.11,1.31,0.6c0.52,1.57,2.67,9.11,4.73,16.53c2.15-0.62,4.41-1.27,6.4-1.84
			c-0.01-0.05-0.03-0.09-0.04-0.14c-2.02-7.08-4.23-15.22-4.36-16.81c-0.05-0.65,0.59-1.12,1.26-1.26c0.67-0.14,1.22,0.09,1.38,0.57
			c0.5,1.45,2.75,9.03,4.96,16.72c1.28-0.37,2.21-0.64,2.56-0.74C487.38,676.61,487.57,676.72,487.63,676.9z"/>
		<path class="st2" d="M505.02,673.85c0.03,0.72-0.07,3.53-0.46,6.24c-0.52,3.65-1.33,5.58-2.46,5.89c-0.45,0.12-0.92,0.04-1.3-0.22
			c-1.4-0.9-2.47-4.07-3.25-7.57c0.04,1.51,0.04,2.83-0.01,3.97c0,0.02,0,0.03,0,0.04l0,0.07c0,0.05-0.01,0.1-0.01,0.15
			c-0.17,3.36-0.78,5.07-1.83,5.36c-0.45,0.12-0.92,0.04-1.3-0.22c-2.05-1.32-3.4-7.53-4.16-12.5c-0.02-0.17-0.05-0.33-0.06-0.36
			c-0.13-0.6,0.58-1.04,1.29-1.19c0.25-0.06,0.51-0.07,0.76-0.03c0.32,0.06,0.54,0.25,0.6,0.52c0.01,0.06,0.03,0.22,0.09,0.67
			c0.14,1.16,0.47,3.88,0.97,6.4c0.79,3.99,1.48,4.98,1.83,5.21c0.06,0.05,0.14,0.07,0.22,0.05c0.07-0.02,0.7-0.3,0.92-4.1l0-0.06
			c0.01-0.2,0.02-0.41,0.02-0.62c0.09-2.93-0.13-6.22-0.24-7.8c-0.03-0.4-0.05-0.7-0.05-0.87l0,0c-0.03-0.18,0-0.5,0.43-0.8
			c0.26-0.17,0.56-0.29,0.86-0.36c0.25-0.06,0.51-0.07,0.76-0.03c0.33,0.06,0.55,0.25,0.6,0.53c0.01,0.06,0.03,0.22,0.09,0.67
			c0.14,1.16,0.47,3.88,0.97,6.4c0.78,4,1.48,4.98,1.83,5.21c0.06,0.05,0.14,0.07,0.22,0.05c0.09-0.02,0.55-0.24,1.06-2.18
			c0.23-0.9,0.41-1.82,0.53-2.74c0,0,0,0,0,0c0.34-2.54,0.42-5.06,0.4-5.73c0-0.09,0.03-0.18,0.09-0.25
			c0.06-0.07,0.15-0.11,0.24-0.11C504.85,673.5,505.01,673.65,505.02,673.85z"/>
		<path class="st2" d="M517.88,669.96c0.07,0.06,0.11,0.15,0.11,0.25c0.02,0.68-0.06,3.26-0.4,5.84c0,0,0,0.01,0,0.01
			c0,0.02-0.01,0.04-0.01,0.06c-0.01,0.11-0.03,0.22-0.04,0.33c-0.52,3.65-1.33,5.58-2.46,5.89c-0.4,0.11-0.82,0.06-1.17-0.16
			c-1.54-0.9-2.44-4.57-3.24-7.82c-0.27-1.11-0.53-2.15-0.78-2.93c-0.3-0.93-0.49-1.18-0.56-1.25c-0.11,0.09-0.48,0.53-0.61,2.65
			c0,0,0,0.01,0,0.01c-0.02,0.45-0.03,0.96-0.02,1.54c0.03,2.61,0.33,5.64,0.54,7.65c0.07,0.68,0.13,1.22,0.15,1.6
			c0.11,0.62-0.39,1.1-0.94,1.27l-0.02,0c-0.64,0.18-1.23-0.07-1.44-0.61c-0.68-1.7-1.41-3.95-2.04-6.2
			c-0.78-2.77-1.4-5.51-1.57-7.14c-0.07-0.64,0.5-1.1,1.09-1.22c0.62-0.13,1.14,0.11,1.3,0.6c0.69,2.07,1.66,5.37,2.44,8.34
			c-0.11-1.4-0.21-2.9-0.22-4.28c-0.01-0.58,0-1.09,0.03-1.55c0-0.01,0-0.03,0-0.04c0-0.03,0-0.07,0.01-0.1l0-0.02
			c0.16-2.99,0.86-3.57,1.41-3.72c0.35-0.1,0.73-0.06,1.05,0.14c1.27,0.74,1.97,3.58,2.71,6.58c0.55,2.23,1.18,4.76,1.9,5.18
			c0.07,0.04,0.15,0.06,0.23,0.03c0.09-0.02,0.55-0.24,1.06-2.18c0.22-0.86,0.39-1.74,0.52-2.62c0.01-0.04,0.01-0.08,0.02-0.12
			c0.34-2.54,0.42-5.06,0.4-5.73c0-0.09,0.03-0.18,0.09-0.25c0.06-0.07,0.15-0.11,0.24-0.11
			C517.72,669.87,517.81,669.9,517.88,669.96z"/>
		<path class="st2" d="M530.79,666.51c0.03,0.09,0.02,0.18-0.02,0.27c-1.2,2.36-2.26,4.79-3.16,7.28c0.19,0.84,0.38,1.7,0.56,2.57
			c1.37,6.71,1.55,11.08,0.53,12.96c-0.31,0.57-0.72,0.93-1.24,1.08c-0.5,0.14-0.94,0.07-1.32-0.2c-0.76-0.54-1.2-1.87-1.38-4.16
			c0-0.01,0-0.02,0-0.03c0-0.01,0-0.02,0-0.03c-0.01-0.15-0.02-0.29-0.03-0.45c-0.15-2.62,0.31-5.48,1.04-8.22
			c0-0.01-0.01-0.03-0.01-0.04c-0.81-3.83-1.83-7.66-2.57-10.03c-0.05,1.79-0.14,4.41-0.35,6.85c-0.05,0.58-0.11,1.11-0.17,1.61
			l-0.01,0.05c-0.09,0.82-0.23,1.64-0.4,2.44c-0.32,1.37-0.69,2.05-1.23,2.2c-0.48,0.13-1.22,0.05-2.02-1.12
			c-0.52-0.76-1-1.87-1.37-3.19c-0.58-2.06-0.82-4.36-0.65-6.17c0.22-2.26,1.03-3.65,2.36-4.02c1.38-0.39,2.42,0.62,3.07,1.49
			l0.01,0.01c0.01,0.01,0.01,0.02,0.02,0.03c0.01,0.01,0.02,0.03,0.03,0.04c0.02-0.55,0.03-1.04,0.03-1.42
			c0.01-0.29,0.01-0.52,0.02-0.68c-0.1-0.29-0.04-0.62,0.16-0.85c0.35-0.43,1.08-0.69,1.67-0.58c0.4,0.08,0.69,0.31,0.8,0.67
			c0.33,1.03,1.26,4.18,2.16,7.93c0.83-2.17,1.77-4.29,2.82-6.36c0.04-0.08,0.12-0.15,0.2-0.18c0.09-0.03,0.19-0.02,0.27,0.02
			C530.7,666.35,530.76,666.42,530.79,666.51z M522.45,668.96c-0.03-0.05-0.06-0.1-0.1-0.16c-0.12-0.19-0.28-0.44-0.46-0.69l0,0
			c-0.46-0.6-1.19-1.17-1.62-1.05c-0.46,0.13-0.96,1.44-1.03,4.08c-0.07,2.31,0.21,4.93,0.7,6.68c0.19,0.67,0.4,1.19,0.62,1.51
			c0.17,0.25,0.33,0.36,0.47,0.32c0.08-0.04,0.52-0.39,0.95-3.68c0,0,0-0.01,0-0.01l0.01-0.05c0.06-0.47,0.11-1,0.16-1.58
			C522.3,672.49,522.39,670.56,522.45,668.96z M526.85,689.35c0.57-1.18,0.29-4.85-0.75-10.17c-0.5,2.23-0.79,4.49-0.67,6.58
			c0.01,0.17,0.02,0.33,0.03,0.48c0.2,2.16,0.61,3.16,0.93,3.38c0.05,0.04,0.11,0.05,0.17,0.03
			C526.67,689.63,526.76,689.52,526.85,689.35L526.85,689.35z"/>
		<path class="st2" d="M538.77,664.12c0.06,0.07,0.1,0.16,0.1,0.25c-0.08,2.06-0.27,4.11-0.58,6.14c-0.13,0.84-0.28,1.6-0.45,2.27
			c-0.56,2.29-1.31,3.54-2.25,3.8c-0.87,0.25-1.92-0.17-2.88-1.14c-0.98-0.99-1.79-2.49-2.27-4.23c-0.56-1.99-0.67-3.99-0.32-5.64
			c0.36-1.65,1.17-2.77,2.23-3.06c0.55-0.17,1.15-0.06,1.6,0.29c0.63,0.48,1.05,1.41,1.1,2.41c0,0.03,0,0.06,0,0.09
			c0,0.02,0,0.05,0,0.07c0,0.02,0,0.03,0,0.05c0,0,0,0,0,0c0,2.27-1.73,4.09-2.48,4.77c0.06,0.25,0.12,0.5,0.19,0.74
			c0.82,2.91,2.04,4.84,2.92,4.59c0.32-0.09,0.8-0.59,1.33-2.44c0-0.02,0.01-0.03,0.01-0.05c0.72-2.64,1.06-6.46,1.13-8.7
			c0-0.09,0.04-0.18,0.11-0.25c0.07-0.06,0.16-0.1,0.25-0.09C538.62,664.01,538.71,664.05,538.77,664.12z M532.41,669.4
			c0.76-0.75,1.96-2.23,1.96-3.97c0,0,0-0.01,0-0.01c0-0.01,0-0.01,0-0.02c0-0.03,0-0.05,0-0.08c0-0.02,0-0.04,0-0.06
			c-0.04-0.6-0.35-1.38-0.8-1.73c-0.18-0.14-0.35-0.18-0.53-0.13c-0.58,0.16-0.93,1.09-0.97,2.54
			C532.04,666.95,532.16,668.16,532.41,669.4z"/>
		<path class="st2" d="M549.4,661.31c0.01,0.02,0.01,0.05,0.01,0.08c0,0,0,0.01,0,0.01c0,0.01,0,0.03,0,0.04
			c0,0.01,0,0.02-0.01,0.03c-0.01,0.03-0.02,0.07-0.04,0.1c-0.01,0.01-0.01,0.02-0.02,0.03c-0.01,0.02-0.03,0.04-0.04,0.05
			l-0.02,0.02c-0.08,0.08-0.16,0.16-0.24,0.22c-0.72,0.64-1.38,1.04-1.97,1.21c-0.3,0.09-0.62,0.11-0.93,0.07
			c-1.09-0.18-1.67-1.23-2.13-2.08c-0.21-0.4-0.54-0.99-0.71-0.95c-0.29,0.08-0.66,1.09-0.84,2.25c-0.13,1.04-0.18,2.09-0.17,3.14
			c0.03,2.63,0.28,5.26,0.74,7.85c0.05,0.26,0.11,0.5,0.15,0.73c0.12,0.63-0.38,1.12-0.94,1.29l-0.02,0
			c-0.64,0.18-1.23-0.07-1.44-0.61c-0.67-1.71-1.25-3.46-1.74-5.23c-0.81-2.89-1.43-5.78-1.86-8.07c-0.1-0.54,0.31-1.06,0.99-1.23
			c0.65-0.17,1.23,0.07,1.4,0.58c0.6,1.79,1.4,4.48,2.11,7.09c-0.05-0.79-0.08-1.6-0.09-2.39c-0.02-1.03,0.03-2.06,0.15-3.08
			c0.25-2.07,0.83-3.24,1.73-3.49c1.2-0.34,1.99,0.65,2.69,1.53c0.51,0.64,0.98,1.24,1.52,1.27c0.27,0.02,0.57-0.12,0.91-0.39
			c0,0,0,0,0,0c0.08-0.07,0.15-0.13,0.23-0.21c0,0,0,0,0.01-0.01c0.01-0.01,0.02-0.01,0.02-0.02c0,0,0,0,0,0
			c0.01,0,0.01-0.01,0.02-0.01c0.03-0.02,0.06-0.04,0.09-0.04c0.03-0.01,0.05-0.01,0.08-0.01c0,0,0.01,0,0.01,0
			c0.02,0,0.03,0,0.04,0c0.05,0.01,0.11,0.02,0.15,0.06c0.01,0,0.02,0.01,0.03,0.02c0,0,0,0,0.01,0.01
			c0.01,0.01,0.02,0.01,0.03,0.02l0,0c0,0,0,0,0,0C549.36,661.2,549.38,661.25,549.4,661.31z"/>
		<path class="st2" d="M574.41,655.01c0.02,0.04,0.03,0.07,0.03,0.11c0.9,5.42,2.78,12.32,3.54,14.51c0.1,0.31,0.03,0.64-0.19,0.88
			c-0.19,0.21-0.44,0.35-0.71,0.42c-0.24,0.07-0.49,0.08-0.74,0.03c-0.36-0.07-0.66-0.33-0.77-0.68c-0.59-1.97-1.07-3.98-1.44-6
			c-0.01,0.07-0.02,0.13-0.02,0.2c-0.57,4.73-1.87,7.4-3.85,7.96c-1.03,0.29-2.27-0.01-3.6-0.86c-1.66-1.06-3.32-2.92-4.65-5.24
			c-1.53-2.66-2.64-5.89-3.19-9.33c-0.81-5.01-0.74-9.91,0.19-13.8c0.89-3.71,2.49-6.14,4.4-6.68c0.69-0.21,1.44-0.11,2.06,0.26
			c1.76,1.05,2.46,3.96,2.54,4.29c0.04,0.16,0.05,0.48-0.3,0.79c-0.45,0.39-1.26,0.58-1.74,0.41c-0.25-0.08-0.44-0.29-0.48-0.56
			c-0.02-0.12-0.04-0.3-0.07-0.54c-0.09-0.82-0.38-3.31-0.91-3.67c-0.03-0.02-0.04-0.02-0.06-0.01c-1.55,0.43-2.75,3.07-3.22,7.04
			c-0.47,4.02-0.14,8.95,0.9,13.19c0.72,2.97,1.87,5.95,3.21,8.39c1.27,2.3,2.66,4.01,3.82,4.69c0.5,0.29,0.94,0.39,1.31,0.29
			c0.75-0.21,1.79-1.1,2.52-4.13l0.01-0.05c0-0.01,0-0.01,0.01-0.02c0.39-1.76,0.59-3.77,0.68-5.62c0,0,0,0,0,0
			c-0.2-1.57-0.29-3.15-0.27-4.74c-1.87,1.02-4.37,2.21-5.51,2.53c-0.53,0.15-1.07-0.17-1.3-0.78c-0.25-0.65-0.05-1.3,0.5-1.57
			c1.89-0.94,3.97-1.51,6.94-1.9c0,0,0.01,0,0.01,0c0.02,0,0.04,0,0.06,0c0.01,0,0.01,0,0.02,0c0.01,0,0.01,0,0.02,0
			c0.01,0,0.02,0,0.03,0.01c0.01,0,0.02,0,0.03,0.01c0.06,0.02,0.11,0.05,0.15,0.1c0,0,0.01,0.01,0.01,0.01c0,0,0.01,0.01,0.01,0.01
			C574.39,654.98,574.4,655,574.41,655.01z"/>
		<path class="st2" d="M592.86,648.92c0.07,0.06,0.11,0.15,0.11,0.24c0.02,0.68-0.06,3.27-0.41,5.85c0,0,0,0,0,0.01c0,0,0,0,0,0
			c-0.02,0.13-0.03,0.26-0.05,0.38c-0.52,3.65-1.33,5.58-2.46,5.89c-0.44,0.12-0.92,0.04-1.3-0.22c-1.62-1.04-2.8-5.15-3.61-9.28
			c-0.06,1.57-0.15,3.42-0.3,5.17c-0.05,0.58-0.11,1.12-0.17,1.61c-0.09,0.84-0.23,1.67-0.41,2.49c-0.32,1.37-0.69,2.05-1.23,2.2
			c-0.48,0.13-1.22,0.05-2.02-1.12c-0.52-0.76-1-1.87-1.37-3.19c-0.58-2.06-0.82-4.36-0.65-6.17c0.22-2.26,1.03-3.65,2.36-4.02
			c1.39-0.39,2.43,0.62,3.08,1.5c0.02,0.02,0.04,0.05,0.05,0.07c0.01-0.56,0.03-1.04,0.03-1.42c0.01-0.28,0.01-0.5,0.02-0.66l0,0
			c0-0.02-0.01-0.04-0.01-0.04c-0.03-0.15-0.04-0.44,0.28-0.72c0.44-0.4,1.3-0.61,1.8-0.45c0.24,0.06,0.43,0.25,0.48,0.5
			c0.01,0.06,0.03,0.21,0.09,0.63c0.15,1.15,0.49,3.86,1,6.38c0.81,4.01,1.52,5,1.87,5.23c0.06,0.05,0.14,0.07,0.22,0.05
			c0.09-0.02,0.55-0.24,1.06-2.18c0.23-0.9,0.41-1.82,0.54-2.74c0.34-2.54,0.42-5.07,0.4-5.73c0-0.09,0.03-0.18,0.09-0.25
			c0.06-0.07,0.15-0.11,0.24-0.11C592.71,648.82,592.8,648.86,592.86,648.92z M584.46,651.56c-0.03-0.05-0.06-0.1-0.1-0.16
			c-0.12-0.19-0.27-0.43-0.45-0.67c0,0,0,0,0,0c-0.01-0.01-0.01-0.01-0.02-0.02c-0.46-0.6-1.19-1.17-1.62-1.05
			c-0.46,0.13-0.95,1.44-1.03,4.08c-0.06,2.31,0.21,4.93,0.7,6.67c0.19,0.67,0.4,1.19,0.62,1.51c0.17,0.25,0.33,0.35,0.47,0.32
			c0.08-0.04,0.52-0.39,0.95-3.68c0,0,0,0,0-0.01c0.06-0.48,0.12-1.03,0.17-1.63C584.31,655.09,584.4,653.16,584.46,651.56z"/>
		<path class="st2" d="M613.13,643.23c0.07,0.06,0.11,0.15,0.11,0.25c0.02,0.68-0.06,3.26-0.41,5.84c0,0,0,0.01,0,0.01
			c0,0.02-0.01,0.04-0.01,0.06c-0.01,0.11-0.03,0.22-0.04,0.32c-0.52,3.65-1.33,5.58-2.46,5.89c-0.4,0.11-0.82,0.06-1.17-0.16
			c-1.54-0.9-2.45-4.57-3.25-7.82c-0.27-1.11-0.53-2.15-0.78-2.93c-0.3-0.93-0.49-1.18-0.56-1.25c-0.19,0.15-0.5,1.06-0.63,2.68
			c0,0.02,0,0.03-0.01,0.05c-0.27,3.43,0.14,8.4,0.67,9.71c0.03,0.08,0.03,0.17,0,0.25c-0.01,0.41-0.38,0.77-0.98,0.94
			c-0.69,0.2-1.27-0.01-1.41-0.49l-0.01-0.03c-0.27-0.98-1-3.52-1.85-5.94c-0.53-1.53-1.02-2.75-1.45-3.63
			c-0.64-1.3-0.97-1.48-1.04-1.5c-0.14,0.12-0.41,0.69-0.68,3.08c0,0,0,0,0,0c-0.05,0.58-0.09,1.21-0.12,1.9
			c-0.08,2.83-0.01,5.66,0.23,8.47c0,0,0,0,0,0.01c0.1,0.61-0.4,1.09-0.94,1.25l-0.02,0c-0.64,0.18-1.23-0.07-1.44-0.61
			c-0.68-1.7-1.41-3.95-2.04-6.2c-0.78-2.77-1.4-5.51-1.57-7.13c-0.06-0.64,0.5-1.1,1.09-1.22c0.62-0.13,1.14,0.11,1.3,0.6
			c0.77,2.29,1.86,6.07,2.68,9.27c-0.04-1.47-0.05-3.03,0-4.47c0.2-5.35,1.1-6.21,1.76-6.4c1.53-0.43,3.12,2.94,4.18,5.52
			c0.34,0.83,0.67,1.68,0.96,2.48c-0.05-0.71-0.1-1.46-0.12-2.23c-0.04-1.25-0.01-2.5,0.08-3.74c0.01-0.06,0.01-0.13,0.02-0.19
			c0-0.06,0.01-0.12,0.02-0.18c0.11-1.06,0.29-2.05,0.6-2.69c0.21-0.43,0.48-0.69,0.8-0.78c0.35-0.1,0.73-0.05,1.05,0.14
			c1.27,0.74,1.97,3.58,2.71,6.58c0.55,2.23,1.17,4.76,1.9,5.18c0.07,0.04,0.15,0.06,0.23,0.03c0.09-0.02,0.55-0.24,1.06-2.18
			c0.23-0.9,0.41-1.82,0.53-2.74c0,0,0,0,0-0.01c0.34-2.54,0.42-5.06,0.4-5.72c-0.01-0.19,0.14-0.36,0.34-0.36
			C612.97,643.14,613.06,643.17,613.13,643.23z"/>
		<path class="st2" d="M621.19,640.99c0.06,0.07,0.1,0.16,0.1,0.25c-0.08,2.06-0.27,4.11-0.58,6.14c-0.13,0.84-0.28,1.6-0.45,2.26
			c-0.56,2.29-1.31,3.54-2.25,3.8c-0.87,0.25-1.92-0.17-2.88-1.14c-0.98-0.99-1.79-2.49-2.27-4.23c-0.56-1.99-0.67-4-0.32-5.64
			c0.36-1.65,1.17-2.77,2.23-3.06c0.55-0.17,1.15-0.06,1.6,0.29c0.63,0.48,1.05,1.41,1.1,2.41c0,0.03,0,0.06,0,0.09
			c0,0.02,0,0.05,0,0.07c0,0.02,0,0.03,0,0.05c0,0,0,0,0,0c0,2.27-1.73,4.09-2.48,4.77c0.06,0.25,0.12,0.5,0.19,0.74
			c0.82,2.91,2.04,4.84,2.92,4.59c0.32-0.09,0.8-0.59,1.33-2.44c0.01-0.02,0.01-0.03,0.01-0.05c0.72-2.64,1.06-6.46,1.13-8.7
			c0-0.09,0.04-0.18,0.11-0.25c0.07-0.06,0.16-0.1,0.25-0.1C621.04,640.88,621.13,640.92,621.19,640.99z M614.83,646.28
			c0.76-0.75,1.96-2.23,1.96-3.97c0,0,0,0,0-0.01c0-0.01,0-0.01,0-0.02c0-0.03,0-0.05,0-0.08c0-0.02,0-0.04,0-0.06
			c-0.04-0.6-0.35-1.38-0.8-1.73c-0.18-0.14-0.35-0.18-0.53-0.13c-0.58,0.16-0.93,1.09-0.97,2.54
			C614.45,643.82,614.58,645.03,614.83,646.28z"/>
		<path class="st2" d="M631.48,638.43c-0.02,0.09-0.07,0.17-0.14,0.23c-0.61,0.43-2.36,2.06-3.88,4.04c-0.2,0.26-0.4,0.53-0.6,0.82
			c1.22,0.5,2.34,1.45,2.53,3.9c0.09,0.99-0.19,1.98-0.77,2.78c-0.51,0.69-1.23,1.21-1.98,1.42c-0.54,0.16-1.13,0.05-1.59-0.28
			c-0.24-0.17-0.45-0.39-0.6-0.64c-0.11-0.16-0.19-0.33-0.25-0.51c-0.1-0.29-0.17-0.59-0.19-0.89c-0.09-1.26,0.29-2.58,0.9-3.86
			c-0.13-0.03-0.26-0.06-0.4-0.08c-1.15-0.24-2.45-0.52-3.31-1.78c-0.68-0.99-0.77-2.52-0.23-3.99c0.48-1.33,1.39-2.3,2.43-2.59
			c0.97-0.27,1.86-0.08,2.59,0.56c0.38,0.34,0.68,0.75,0.89,1.21c0.02,0.03,0.03,0.06,0.04,0.09c0.01,0.01,0.01,0.03,0.02,0.04
			c0.36,0.8,0.48,1.69,0.38,2.36c-0.03,0.19-0.21,0.33-0.4,0.3c-0.19-0.03-0.33-0.21-0.3-0.4c0.08-0.6-0.04-1.39-0.38-2.08
			l-0.01-0.01c-0.25-0.5-0.85-1.41-1.67-1.18c-0.51,0.14-1.01,0.67-1.3,1.38c-0.39,0.94-0.35,1.97,0.1,2.77
			c0.36,0.64,1.16,0.85,2.08,1.08c0.23,0.06,0.46,0.12,0.7,0.19c1.83-2.67,4.23-4.81,4.76-5.19c0.08-0.05,0.17-0.08,0.26-0.06
			c0.09,0.01,0.17,0.07,0.23,0.14C631.48,638.24,631.5,638.34,631.48,638.43z M627.45,647.15c-0.41-0.92-1.05-1.31-1.83-1.55
			c-0.59,1.19-0.98,2.45-0.9,3.63c0.01,0.23,0.06,0.46,0.14,0.68v0c0,0.01,0.01,0.02,0.01,0.03c0.04,0.12,0.1,0.24,0.17,0.35
			c0,0.01,0.01,0.02,0.01,0.02c0.13,0.18,0.3,0.34,0.49,0.45c0.21,0.13,0.46,0.17,0.7,0.1c0.51-0.14,0.93-0.53,1.2-1.1
			C627.81,648.94,627.82,647.99,627.45,647.15z"/>
	</g>
</g>
<g id="HANGOUT_00000089538054120171459520000005694841009357633975_">
	<g>
		<g>
			<path class="st1" d="M684.34,498.43c0.21,0.03,0.4,0.14,0.53,0.31c0.13,0.17,0.18,0.38,0.15,0.59c-0.63,3.97-2.13,7.38-4.24,9.77
				c0.62,1.56,1.11,3.18,1.46,4.82c0.1,0.4,0.19,0.8,0.25,1.21c0.27,1.48,0.43,2.99,0.48,4.5l0,0.08c0,0.07,0,0.2,0,0.37
				c0,1.84-0.23,3.55-0.8,4.92c-0.61,1.48-1.57,2.47-2.84,2.97c-1.8,0.71-3.92,0.27-6.15-1.28c-4.99-3.46-10.36-12.54-10.07-19.52
				c0.02-0.42,0.22-1,1.04-1.52c-0.1-0.32-0.19-0.64-0.26-0.96l0,0c0,0,0-0.01,0-0.01c-0.03-0.12-0.05-0.25-0.07-0.38
				c-0.06-0.32-0.1-0.64-0.13-0.97c-0.2-2.75,0.97-4.84,3.19-5.71c2.2-0.87,4.87-0.07,7.53,2.25c2.1,1.84,4.12,4.57,5.63,7.59
				c1.65-2.13,2.85-5.06,3.37-8.36C683.48,498.68,683.89,498.37,684.34,498.43L684.34,498.43z M665.66,505.05
				c1.06-0.27,2.31-0.33,3.02,0.16c0.41,0.27,0.63,0.76,0.56,1.25c-0.12,0.98,0.02,2.33,0.37,3.88c0.49,0.29,1.01,0.5,1.57,0.62
				c2.37,0.51,4.55,0.11,6.45-1.18c0.29-0.19,0.57-0.41,0.83-0.64c-1.95-3.46-4.82-6.93-7.68-8.58c-1.52-0.88-2.84-1.1-3.91-0.68
				c-1.93,0.76-1.59,3.5-1.43,4.33c0,0.01,0,0.01,0,0.02C665.51,504.51,665.58,504.78,665.66,505.05z M680.89,515.51
				c-0.18-1.4-0.77-3.13-1.66-4.92c-0.22,0.18-0.45,0.35-0.68,0.51c-2.26,1.53-4.94,2.03-7.73,1.43c-0.23-0.05-0.45-0.11-0.67-0.18
				c1.46,4.8,4.36,10.52,7.1,12.59c0.89,0.68,1.66,0.89,2.3,0.64c0.94-0.37,1.45-2.05,1.67-3.69c0.17-2.04,0.09-4.09-0.25-6.11
				C680.93,515.69,680.9,515.6,680.89,515.51L680.89,515.51z"/>
			<path class="st1" d="M715.76,487.02c0.22,1.62,0.61,8.03,0.3,14.27c-0.41,8.41-1.85,12.98-4.39,13.98
				c-1,0.39-2.12,0.33-3.05-0.18c-3.42-1.7-6.58-8.62-9.15-16.38c0.43,3.41,0.71,6.41,0.84,9c0.01,0.03,0.01,0.07,0.01,0.1l0,0.15
				c0.01,0.11,0.01,0.23,0.01,0.34c0.33,7.66-0.69,11.69-3.06,12.62c-1,0.39-2.12,0.33-3.05-0.18c-5.01-2.49-9.47-16.24-12.33-27.34
				c-0.09-0.37-0.19-0.73-0.21-0.8c-0.43-1.33,1.1-2.5,2.71-3.02c0.56-0.2,1.15-0.28,1.74-0.26c0.76,0.06,1.31,0.44,1.51,1.04
				c0.04,0.14,0.12,0.5,0.35,1.5c0.58,2.6,1.94,8.69,3.62,14.27c2.68,8.87,4.5,10.93,5.35,11.37c0.15,0.1,0.34,0.12,0.51,0.06
				c0.16-0.06,1.55-0.86,1.22-9.52l-0.01-0.14c-0.02-0.46-0.05-0.93-0.08-1.42c-0.43-6.67-1.65-14.09-2.24-17.65
				c-0.15-0.91-0.26-1.58-0.31-1.97l0-0.01c-0.11-0.41-0.1-1.13,0.82-1.91c0.57-0.46,1.22-0.81,1.92-1.03
				c0.56-0.2,1.15-0.28,1.74-0.26c0.76,0.06,1.31,0.44,1.51,1.04c0.05,0.14,0.13,0.5,0.35,1.49c0.58,2.6,1.94,8.69,3.62,14.27
				c2.68,8.87,4.5,10.93,5.35,11.37c0.15,0.1,0.34,0.12,0.51,0.06c0.2-0.08,1.21-0.69,1.97-5.2c0.33-2.11,0.54-4.23,0.64-6.35
				c0,0,0,0,0,0c0.23-5.84-0.13-11.6-0.33-13.1c-0.03-0.21,0.03-0.42,0.16-0.59c0.13-0.17,0.33-0.28,0.54-0.31
				C715.29,486.28,715.7,486.58,715.76,487.02z"/>
			<path class="st1" d="M725.4,458.82c0.42-0.17,0.89,0.03,1.05,0.44c0.16,0.41-0.05,0.88-0.47,1.04l-13.55,5.33
				c1.22,4.24,2.72,9.26,4.41,14.36c6.51,19.73,10.2,24.04,11.82,24.85c0.46,0.23,0.73,0.17,0.89,0.11c1.03-0.4,2.23-4.13,2.6-11.55
				c0.23-5.84-0.13-11.6-0.33-13.1c-0.05-0.29,0.06-0.58,0.3-0.77s0.55-0.23,0.82-0.12c0.27,0.11,0.46,0.36,0.49,0.66
				c0.21,1.54,0.57,7.43,0.34,13.37c0,0,0,0.01,0,0.01c-0.01,0.3-0.03,0.59-0.04,0.89c-0.42,8.41-1.85,12.98-4.39,13.98
				c-1.08,0.43-2.23,0.33-3.42-0.28c-4.17-2.15-9.13-11.18-14.73-26.84c-1.67-4.67-3.18-9.32-4.41-13.34l-11.84,4.66
				c-0.42,0.17-0.89-0.03-1.05-0.44c-0.16-0.41,0.05-0.88,0.47-1.04l11.96-4.7c-1.61-5.32-2.66-9.26-2.86-10.15
				c-0.24-1.07,0.73-2.46,3.04-3.01c1.78-0.43,2.62,0.21,2.8,0.96c0.02,0.07,1.03,4.11,2.69,9.97L725.4,458.82z"/>
		</g>
	</g>
	<g>
		<g>
			<path class="st1" d="M461.31,568.46c0.12,0.42,0.07,0.88-0.15,1.26c-0.22,0.39-0.58,0.67-1.01,0.8
				c-1.24,0.36-5.79,1.68-12.33,3.57c10.25,35.64,20.09,70.94,21.47,78.82c0.47,2.65-1.65,5.21-5.15,6.24l-0.12,0.03
				c-3.42,0.96-6.42-0.1-7.49-2.65c-1.98-4.72-5.95-16.98-10.59-32.15c-4.28-14-9.14-30.5-13.55-45.84
				c-9.56,2.76-20.46,5.89-30.82,8.87c8.79,31.82,16.98,62.44,18.43,70.14c0.56,2.96-1.87,5.31-4.55,6.09l-0.08,0.02
				c-3.05,0.86-5.89-0.3-6.91-2.84c-3.1-7.74-10.88-34.1-18.43-61c-0.79-2.81-1.57-5.63-2.35-8.42c-8.9,2.55-16.57,4.73-21.44,6.1
				c-2.29,0.64-3.96,1.1-4.85,1.34c-0.9,0.24-1.82-0.29-2.05-1.17c-0.23-0.88,0.31-1.79,1.21-2.03c2.73-0.72,13.13-3.67,26.24-7.42
				c-0.42-1.51-0.83-3.01-1.24-4.5c-8.12-29.53-17.88-66.72-18.65-74.34c-0.3-3,2.41-5.2,5.25-5.81c2.96-0.65,5.47,0.48,6.25,2.79
				c2.48,7.39,12.61,42.92,22.28,77.88c10.34-2.97,21.22-6.1,30.79-8.86c-0.06-0.21-0.12-0.43-0.18-0.64
				c-9.54-33.36-19.93-71.69-20.5-79.22c-0.23-3.05,2.88-5.33,6.08-5.99c3.23-0.68,5.83,0.37,6.62,2.67
				c2.34,6.82,12.95,42.54,23.38,78.75c6.18-1.79,10.65-3.08,12.32-3.57C460.12,567.09,461.05,567.59,461.31,568.46z"/>
			<path class="st1" d="M542.72,552.91c0.33,0.3,0.52,0.71,0.53,1.15c0.1,3.22-0.38,15.41-2.1,27.6c0,0.01-0.01,0.03-0.01,0.04
				c0,0,0,0,0,0c-0.08,0.6-0.17,1.21-0.26,1.81c-2.61,17.23-6.52,26.34-11.97,27.87c-2.14,0.6-4.43,0.23-6.24-1
				c-7.76-4.88-13.32-24.21-17.08-43.69c-0.31,7.39-0.79,16.14-1.58,24.42c-0.26,2.72-0.54,5.26-0.85,7.61
				c-0.47,3.95-1.15,7.87-2.04,11.75c-1.55,6.47-3.39,9.67-5.94,10.39c-2.31,0.65-5.86,0.26-9.7-5.25
				c-2.49-3.58-4.73-8.77-6.48-15.02c-2.72-9.7-3.83-20.57-2.96-29.08c1.09-10.66,5.04-17.24,11.43-19.03
				c6.68-1.87,11.65,2.89,14.74,7.01c0.09,0.11,0.17,0.23,0.26,0.34c0.09-2.62,0.15-4.9,0.2-6.71c0.04-1.31,0.07-2.35,0.09-3.09
				l0-0.01c-0.02-0.1-0.03-0.18-0.03-0.21c-0.15-0.69-0.18-2.06,1.34-3.42c2.11-1.89,6.24-2.92,8.67-2.17
				c1.16,0.29,2.05,1.2,2.31,2.34c0.06,0.29,0.16,1,0.4,2.99c0.68,5.44,2.28,18.2,4.67,30.08c3.8,18.91,7.18,23.56,8.85,24.64
				c0.29,0.24,0.69,0.33,1.06,0.23c0.42-0.12,2.64-1.17,5.13-10.3c1.12-4.26,2-8.58,2.63-12.94c1.69-11.99,2.16-23.92,2.07-27.06
				c-0.01-0.44,0.15-0.87,0.46-1.19c0.31-0.32,0.73-0.51,1.18-0.53C541.96,552.46,542.4,552.61,542.72,552.91z M502.28,565.57
				c-0.15-0.23-0.31-0.48-0.49-0.77c-0.56-0.88-1.28-2.01-2.14-3.17c0,0-0.01-0.01-0.01-0.01c-0.03-0.03-0.06-0.06-0.08-0.1
				c-2.2-2.83-5.67-5.52-7.75-4.93c-2.21,0.62-4.62,6.82-5.05,19.29c-0.37,10.9,0.88,23.25,3.19,31.47c0.88,3.15,1.91,5.6,2.96,7.09
				c0.83,1.17,1.58,1.67,2.23,1.48c0.38-0.18,2.49-1.87,4.67-17.38c0-0.01,0-0.02,0-0.03c0.3-2.28,0.58-4.83,0.86-7.69
				C501.49,582.23,501.97,573.12,502.28,565.57z"/>
			<path class="st1" d="M605.01,535.43c0.32,0.3,0.51,0.71,0.53,1.15c0.1,3.22-0.38,15.39-2.09,27.57c0,0.02,0,0.05-0.01,0.07
				c-0.01,0.09-0.03,0.19-0.04,0.28c-0.07,0.51-0.15,1.02-0.22,1.53c-2.61,17.23-6.52,26.34-11.97,27.87
				c-1.9,0.55-3.94,0.29-5.62-0.71c-7.36-4.19-11.62-21.51-15.38-36.79c-1.28-5.22-2.49-10.14-3.67-13.83
				c-1.4-4.38-2.32-5.56-2.68-5.87c-0.51,0.41-2.31,2.54-2.99,12.52c0,0.02,0,0.04,0,0.07c-0.11,2.11-0.16,4.52-0.15,7.25
				c0.05,12.33,1.46,26.61,2.38,36.06c0.32,3.22,0.57,5.78,0.7,7.54c0.49,2.92-1.91,5.22-4.57,5.99l-0.08,0.02
				c-3.05,0.86-5.89-0.3-6.91-2.84c-3.21-7.99-6.66-18.62-9.62-29.18c-3.66-13.05-6.58-25.98-7.34-33.63c-0.3-3,2.41-5.19,5.25-5.81
				c2.96-0.65,5.47,0.48,6.25,2.79c3.27,9.76,7.82,25.27,11.51,39.31c-0.51-6.6-0.91-13.66-0.94-20.2c-0.01-2.71,0.05-5.14,0.16-7.3
				c0-0.06,0-0.12,0-0.18c0.01-0.16,0.02-0.31,0.04-0.47l0-0.12c0.85-14.13,4.22-16.87,6.84-17.61c1.7-0.5,3.52-0.27,5.02,0.62
				c6.1,3.47,9.38,16.83,12.87,30.97c2.59,10.51,5.52,22.42,8.98,24.39c0.32,0.21,0.73,0.26,1.1,0.15c0.42-0.12,2.64-1.17,5.13-10.3
				c1.07-4.08,1.93-8.21,2.55-12.38c0.03-0.19,0.06-0.38,0.09-0.57c1.69-11.99,2.16-23.91,2.07-27.05
				c-0.01-0.44,0.15-0.87,0.46-1.19c0.31-0.32,0.73-0.51,1.18-0.53C604.25,534.98,604.69,535.13,605.01,535.43z"/>
			<path class="st1" d="M667.11,518.83c0.14,0.42,0.1,0.87-0.11,1.26c-5.83,11.16-10.96,22.65-15.35,34.41
				c0.9,3.97,1.78,8.03,2.61,12.12c6.4,31.64,7.14,52.22,2.21,61.15c-1.48,2.69-3.5,4.41-6,5.11c-2.38,0.67-4.51,0.37-6.32-0.9
				c-3.61-2.52-5.7-8.77-6.5-19.6c0-0.05-0.01-0.09-0.01-0.13c0-0.04,0-0.08-0.01-0.12c-0.05-0.69-0.09-1.4-0.13-2.12
				c-0.67-12.34,1.62-25.85,5.21-38.79c-0.01-0.07-0.03-0.13-0.04-0.2c-3.81-18.04-8.57-36.11-12.06-47.24
				c-0.27,8.42-0.77,20.82-1.87,32.32c-0.26,2.72-0.54,5.26-0.84,7.61l-0.03,0.22c-0.47,3.87-1.14,7.72-2,11.52
				c-1.56,6.47-3.39,9.67-5.94,10.39c-2.31,0.65-5.87,0.26-9.7-5.25c-2.49-3.58-4.73-8.77-6.48-15.02
				c-2.72-9.7-3.83-20.57-2.96-29.08c1.09-10.66,5.04-17.24,11.43-19.03c6.65-1.87,11.6,2.85,14.7,6.96l0.04,0.05
				c0.03,0.04,0.06,0.09,0.09,0.13c0.05,0.07,0.11,0.14,0.16,0.21c0.09-2.62,0.15-4.9,0.2-6.71c0.03-1.38,0.07-2.45,0.1-3.19
				c-0.49-1.37-0.19-2.9,0.79-4c1.7-2.06,5.22-3.28,8.01-2.78c1.94,0.34,3.3,1.46,3.84,3.15c1.55,4.86,5.93,19.7,10.15,37.38
				c4.03-10.25,8.61-20.29,13.72-30.07c0.2-0.39,0.56-0.69,0.98-0.83s0.89-0.1,1.29,0.09C666.67,518.07,666.97,518.41,667.11,518.83
				z M625.37,555.83c0.82-8.59,1.31-17.7,1.61-25.26c-0.15-0.23-0.31-0.48-0.5-0.77c-0.58-0.91-1.32-2.07-2.21-3.26l-0.02-0.02
				c-2.21-2.83-5.67-5.52-7.75-4.93c-2.21,0.62-4.62,6.82-5.05,19.29c-0.37,10.9,0.88,23.25,3.19,31.47c0.88,3.15,1.9,5.6,2.96,7.09
				c0.83,1.17,1.58,1.67,2.23,1.48c0.38-0.17,2.49-1.87,4.67-17.38c0-0.01,0-0.02,0-0.03l0.03-0.22
				C624.83,561.07,625.11,558.6,625.37,555.83L625.37,555.83z M647.59,626.67c2.77-5.58,1.53-22.87-3.36-47.94
				c-2.48,10.52-3.91,21.2-3.37,31.07c0.04,0.79,0.09,1.54,0.15,2.28c0.93,10.18,2.87,14.89,4.39,15.92
				c0.22,0.18,0.53,0.23,0.8,0.14C646.71,628,647.18,627.5,647.59,626.67L647.59,626.67z"/>
		</g>
	</g>
</g>
<g class="st4">
	<text transform="matrix(0.9628 -0.2702 0.2702 0.9628 419.0839 708.9098)" class="st5 st6 st7">The Hunger Games</text>
</g>
<g id="HANGOUT" class="st4">
	<g class="st8">
		<text transform="matrix(0.9499 -0.3736 0.366 0.9306 670.7366 530.5085)" class="st1 st6 st9">out</text>
	</g>
	<g class="st8">
		<text transform="matrix(0.9828 -0.2758 0.2702 0.9628 366.409 655.2667)" class="st1 st6 st10">Hang</text>
	</g>
</g>
</svg>
